<svg xmlns="http://www.w3.org/2000/svg" aria-hidden="true" style="position: absolute; width: 0; height: 0; overflow: hidden;">
    <defs>
        <symbol id="icon-linkedin-1" viewBox="0 0 32 32">
            <path
                fill="#f4f4fd"
                d="M31.992 32v-.001H32V20.263c0-5.741-1.236-10.164-7.948-10.164-3.227 0-5.392 1.771-6.276 3.449h-.093v-2.913h-6.364v21.364h6.627V21.42c0-2.785.528-5.479 3.977-5.479 3.399 0 3.449 3.179 3.449 5.657v10.401h6.62zM.528 10.636h6.635V32H.528V10.636zM3.843 0C1.722 0 0 1.721 0 3.843s1.721 3.879 3.843 3.879c2.121 0 3.843-1.757 3.843-3.879A3.846 3.846 0 0 0 3.843 0z"
                style="fill: var(--color1, #f4f4fd);"
            />
        </symbol>

        <symbol id="icon-facebook-1" viewBox="0 0 32 32">
            <path
                fill="#f4f4fd"
                d="M21.329 5.313h2.921V.225C23.746.156 22.013 0 19.994 0c-4.212 0-7.097 2.649-7.097 7.519V12H8.249v5.688h4.648V32h5.699V17.689h4.46l.708-5.688h-5.169V8.082c.001-1.644.444-2.769 2.735-2.769z"
                style="fill: var(--color1, #f4f4fd);"
            />
        </symbol>

        <symbol id="icon-twitter-1" viewBox="0 0 32 32">
            <path
                fill="#f4f4fd"
                d="M32 6.078c-1.19.522-2.458.868-3.78 1.036a6.523 6.523 0 0 0 2.886-3.626 13.11 13.11 0 0 1-4.16 1.588A6.574 6.574 0 0 0 22.154 3c-3.632 0-6.556 2.948-6.556 6.562 0 .52.044 1.02.152 1.496-5.454-.266-10.28-2.88-13.522-6.862a6.605 6.605 0 0 0-.898 3.316 6.57 6.57 0 0 0 2.914 5.452 6.479 6.479 0 0 1-2.964-.808v.072c0 3.188 2.274 5.836 5.256 6.446a6.548 6.548 0 0 1-1.72.216 5.8 5.8 0 0 1-1.242-.112c.85 2.598 3.262 4.508 6.13 4.57a13.182 13.182 0 0 1-8.134 2.798c-.538 0-1.054-.024-1.57-.09A18.469 18.469 0 0 0 10.064 29c12.072 0 18.672-10 18.672-18.668 0-.29-.01-.57-.024-.848A13.087 13.087 0 0 0 32 6.078z"
                style="fill: var(--color1, #f4f4fd);"
            />
        </symbol>

        <symbol id="icon-instagram-2" viewBox="0 0 32 32">
            <path
                fill="#f4f4fd"
                d="M31.969 9.408c-.075-1.7-.35-2.869-.744-3.882a7.803 7.803 0 0 0-1.85-2.838A7.867 7.867 0 0 0 26.543.844C25.524.45 24.361.175 22.661.1 20.948.019 20.404 0 16.06 0s-4.888.019-6.595.094c-1.7.075-2.869.35-3.882.744a7.803 7.803 0 0 0-2.838 1.85A7.867 7.867 0 0 0 .901 5.52C.507 6.539.232 7.702.157 9.402c-.081 1.713-.1 2.257-.1 6.601s.019 4.888.094 6.595c.075 1.7.35 2.869.744 3.882a7.895 7.895 0 0 0 1.85 2.838 7.867 7.867 0 0 0 2.832 1.844c1.019.394 2.182.669 3.882.744 1.706.075 2.25.094 6.595.094s4.888-.019 6.595-.094c1.7-.075 2.869-.35 3.882-.744a8.181 8.181 0 0 0 4.682-4.682c.394-1.019.669-2.182.744-3.882.075-1.707.094-2.25.094-6.595s-.006-4.888-.081-6.595zm-2.882 13.065c-.069 1.563-.331 2.407-.55 2.969a5.31 5.31 0 0 1-3.038 3.038c-.563.219-1.413.481-2.969.55-1.688.075-2.194.094-6.464.094s-4.782-.019-6.464-.094c-1.563-.069-2.407-.331-2.969-.55a4.926 4.926 0 0 1-1.838-1.194 4.974 4.974 0 0 1-1.194-1.838c-.219-.563-.481-1.413-.55-2.969-.075-1.688-.094-2.194-.094-6.464s.019-4.782.094-6.464c.069-1.563.331-2.407.55-2.969a4.868 4.868 0 0 1 1.2-1.838A4.974 4.974 0 0 1 6.639 3.55c.563-.219 1.413-.481 2.969-.55 1.688-.075 2.194-.094 6.464-.094 4.276 0 4.782.019 6.464.094 1.563.069 2.407.331 2.969.55a4.914 4.914 0 0 1 1.838 1.194 4.974 4.974 0 0 1 1.194 1.838c.219.563.481 1.413.55 2.969.075 1.688.094 2.194.094 6.464s-.019 4.77-.094 6.458z"
                style="fill: var(--color1, #f4f4fd);"
            />
            <path
                fill="#f4f4fd"
                d="M16.059 7.783c-4.538 0-8.22 3.682-8.22 8.22s3.682 8.22 8.22 8.22 8.22-3.682 8.22-8.22-3.682-8.22-8.22-8.22zm0 13.552a5.333 5.333 0 0 1 0-10.664 5.333 5.333 0 0 1 0 10.664zM26.524 7.458a1.919 1.919 0 1 1-3.838 0 1.919 1.919 0 0 1 3.838 0z"
                style="fill: var(--color1, #f4f4fd);"
            />
        </symbol>

        <symbol id="icon-astronaut-1" viewBox="0 0 32 32">
            <path
                fill="#4d5ae5"
                d="M31.974 4.524a.534.534 0 0 0-.43-.363l-1.91-.278-.855-1.731c-.179-.365-.777-.365-.956 0l-.855 1.731-1.91.278a.535.535 0 0 0-.296.91l1.383 1.348-.326 1.903c-.034.2.048.402.212.522a.53.53 0 0 0 .562.04l1.709-.899 1.709.899a.536.536 0 0 0 .775-.563l-.326-1.903 1.383-1.348a.536.536 0 0 0 .135-.547zm-2.463 1.327a.534.534 0 0 0-.153.472l.191 1.114-1-.526a.533.533 0 0 0-.498 0l-1.001.526.191-1.114a.534.534 0 0 0-.153-.472l-.81-.789 1.119-.163a.532.532 0 0 0 .402-.292l.5-1.013.5 1.013a.535.535 0 0 0 .402.292l1.119.163-.809.789zM26.133 20.522h-1.067v1.067h1.067v-1.067zM26.133 22.656h-1.067v1.067h1.067v-1.067zM27.2 21.589h-1.067v1.067H27.2v-1.067zM25.067 21.589H24v1.067h1.067v-1.067zM22.4 26.389h-1.067v1.067H22.4v-1.067zM22.4 28.522h-1.067v1.067H22.4v-1.067zM23.467 27.456H22.4v1.067h1.067v-1.067zM21.333 27.456h-1.067v1.067h1.067v-1.067zM16 24.256h-1.067v1.067H16v-1.067zM16 26.389h-1.067v1.067H16v-1.067zM17.067 25.322H16v1.067h1.067v-1.067zM14.933 25.322h-1.067v1.067h1.067v-1.067zM5.867 6.122H4.8v1.067h1.067V6.122zM5.867 8.255H4.8v1.067h1.067V8.255z"
                style="fill: var(--color2, #4d5ae5);"
            />
            <path fill="#4d5ae5" d="M6.933 7.189H5.866v1.067h1.067V7.189zM4.8 7.189H3.733v1.067H4.8V7.189z" style="fill: var(--color2, #4d5ae5);" />
            <path
                fill="#2e2f42"
                d="M24.715 14.159a1.775 1.775 0 0 0-1.188-.705 1.778 1.778 0 0 0-1.34.352l-1.252.96-1.898 1.417-1.358-.541c2.421-1.086 4.114-3.508 4.114-6.32 0-3.823-3.123-6.933-6.961-6.933s-6.961 3.11-6.961 6.933a6.86 6.86 0 0 0 1.12 3.758l-2.764-.024h-.005c-.009 0-.015.004-.023.005a.515.515 0 0 0-.155.031l-.038.013c-.006.003-.013.003-.019.006l-3.233 1.596-.001.001-1.893.911a.397.397 0 0 0-.063.035 1.779 1.779 0 0 0-.598 2.295c.22.429.595.745 1.056.889a1.776 1.776 0 0 0 1.378-.128l1.388-.738 2.264-1.169 1.357-.008L2.2 22.211l-.002.001-1.339 1.333c-.316.315-.49.732-.49 1.178s.174.863.49 1.179c.325.323.752.485 1.179.485s.854-.162 1.18-.485l1.314-1.309 1.741-1.3.901.897-1.762 1.754-.002.001-1.339 1.333c-.316.315-.49.732-.49 1.178s.174.863.49 1.179c.325.323.753.485 1.18.485s.855-.162 1.18-.485l3.482-3.467.001-.002 1.01-1-.004-.004c.006-.006.015-.009.022-.015l5.166-5.658 3.471.494a.52.52 0 0 0 .262-.033c.018-.006.033-.015.05-.023.019-.01.039-.015.058-.027l3.213-2.133c.012-.008.018-.021.029-.029.013-.01.029-.014.041-.026l1.271-1.191c.662-.62.753-1.635.212-2.362zM2.13 17.77a.714.714 0 0 1-.558.052.717.717 0 0 1-.213-1.26l1.314-.632.449 1.313-.992.527zm3.498-1.828-1.548.8-.439-1.283 2.027-1.001-.04 1.484zm15.099-6.62a5.79 5.79 0 0 1-.599 2.559l-4.181-1.899a1.863 1.863 0 0 0-.788-1.388l1.464-4.86c2.378.756 4.105 2.974 4.105 5.588zm-11.789 0c0-3.235 2.644-5.867 5.894-5.867.253 0 .5.021.745.052l-1.432 4.754c-.019-.001-.037-.006-.057-.006-1.033 0-1.873.837-1.873 1.867s.84 1.867 1.873 1.867c.694 0 1.294-.383 1.618-.945l3.862 1.755a5.894 5.894 0 0 1-4.737 2.39c-3.25 0-5.894-2.632-5.894-5.867zm5.956.8c0 .441-.362.8-.806.8s-.806-.359-.806-.8c0-.441.362-.8.806-.8s.806.359.806.8zM2.465 25.146a.608.608 0 0 1-.854.001.592.592 0 0 1 0-.844l.962-.958.851.848-.959.955zm3.214 3.734a.608.608 0 0 1-.855.001.592.592 0 0 1 0-.844l.963-.959.852.848-.96.955zm3.481-3.469-.002.001-1.765 1.76-.852-.848 1.763-1.755.002-.001c.04-.04.065-.088.09-.135.007-.014.02-.026.026-.04.017-.041.019-.085.026-.129.003-.025.014-.047.014-.073 0-.036-.013-.07-.02-.106-.006-.032-.006-.065-.019-.095a.55.55 0 0 0-.091-.138c-.01-.012-.014-.027-.025-.038h-.001l-.001-.002-1.607-1.6c-.017-.017-.039-.024-.058-.038a.507.507 0 0 0-.087-.058.515.515 0 0 0-.093-.033.507.507 0 0 0-.103-.02.5.5 0 0 0-.095.005.53.53 0 0 0-.104.02.477.477 0 0 0-.094.045c-.02.011-.042.015-.061.029L4.23 23.486l-.901-.897 2.399-2.386 4.361 4.289-.928.919zm6.819-7.017c-.015-.002-.03.004-.045.003a.556.556 0 0 0-.3.075.492.492 0 0 0-.083.061c-.013.011-.028.017-.04.029l-4.698 5.146-4.328-4.257 2.833-2.818a.534.534 0 0 0-.379-.911v-.001l-2.219.013.028-1.607 3.104.027a6.947 6.947 0 0 0 4.981 2.101c.437 0 .864-.045 1.279-.123.04.032.079.065.13.085l2.41.96.152.758.178.885-3.003-.427zm4.041.178-.313-1.558 1.446-1.08.947 1.257-2.08 1.381zm3.754-2.831-.838.785-.931-1.236.831-.637a.735.735 0 0 1 .543-.143.718.718 0 0 1 .48.284.713.713 0 0 1-.085.947z"
                style="fill: var(--color3, #2e2f42);"
            />
            <path
                fill="#2e2f42"
                d="m13.602 18.544-2.143-2.133a.534.534 0 0 0-.753 0l-2.142 2.133a.537.537 0 0 0 0 .756l2.142 2.133a.536.536 0 0 0 .753 0l2.143-2.133a.535.535 0 0 0 0-.756zm-2.519 1.759-1.387-1.381 1.387-1.381 1.387 1.381-1.387 1.381zM17.164 5.071l-.258 1.036c.071.018 1.738.452 1.738 2.149h1.067c0-2.017-1.666-2.965-2.547-3.185zM19.711 9.322h-1.067v1.067h1.067V9.322z"
                style="fill: var(--color3, #2e2f42);"
            />
        </symbol>

        <symbol id="icon-diagram-1" viewBox="0 0 32 32">
            <path fill="#4d5ae5" d="M14.925 14.965h1.066v4.798h-1.066v-4.797zM19.19 17.097h1.066v2.665H19.19v-2.665zM10.661 18.696h1.066v1.066h-1.066v-1.066zM7.463 18.163h1.066v1.599H7.463v-1.599z" style="fill: var(--color2, #4d5ae5);" />
            <path
                fill="#2e2f42"
                d="M1.599 28.291h25.587a1.6 1.6 0 0 0 1.599-1.599V24.56a1.6 1.6 0 0 0-1.599-1.599h-.533V9.668L29.681 6.8a1.608 1.608 0 1 0-.746-.763L26.654 8.2V6.97a1.6 1.6 0 0 0-1.599-1.599H3.733A1.6 1.6 0 0 0 2.134 6.97v15.992h-.533a1.6 1.6 0 0 0-1.599 1.599v2.132a1.6 1.6 0 0 0 1.599 1.599zM30.384 4.837a.533.533 0 1 1 0 1.067.533.533 0 0 1 0-1.067zM3.198 6.969c0-.294.239-.533.533-.533h21.322c.294 0 .533.239.533.533v2.239l-1.066 1.013V8.035a.533.533 0 0 0-.533-.533H4.797a.533.533 0 0 0-.533.533v13.326c0 .294.239.533.533.533h19.19a.533.533 0 0 0 .533-.533v-9.674l1.066-1.01v12.284H3.198V6.969zm4.798 6.93a1.598 1.598 0 1 0 1.107 2.749l1.853.93a.532.532 0 0 0 .636-.123l3.939-4.431 3.872 2.901a.533.533 0 0 0 .686-.039l3.365-3.188v8.131H5.33V8.569h18.124v2.66l-3.771 3.572-3.904-2.927a.533.533 0 0 0-.718.072l-3.993 4.493-1.493-.746c.011-.064.018-.129.02-.193a1.6 1.6 0 0 0-1.599-1.599zm.533 1.599a.533.533 0 1 1-1.067 0 .533.533 0 0 1 1.067 0zm3.198 8.529h5.331v.533a.533.533 0 0 1-.533.533h-4.264a.533.533 0 0 1-.533-.533v-.533zm-10.661.533c0-.294.239-.533.533-.533h9.062v.533a1.6 1.6 0 0 0 1.599 1.599h4.264a1.6 1.6 0 0 0 1.599-1.599v-.533h9.062c.294 0 .533.239.533.533v2.132a.533.533 0 0 1-.533.533H1.598a.533.533 0 0 1-.533-.533V24.56z"
                style="fill: var(--color3, #2e2f42);"
            />
        </symbol>

        <symbol id="icon-clock-1" viewBox="0 0 32 32">
            <path
                fill="#2e2f42"
                d="M31.297 15.301C31.295 6.849 24.442-.002 15.989 0S.686 6.855.688 15.308a15.304 15.304 0 0 0 10.649 14.576.662.662 0 0 0 .529-.065.637.637 0 0 0 .283-.356l3.865-12.25a1.912 1.912 0 1 0-.84-3.635l-5.106-5.107a.637.637 0 0 0-.902.902l5.103 5.109a1.876 1.876 0 0 0 .536 2.309l-3.683 11.673C3.844 25.783.118 17.71 2.799 10.432S13.553-.572 20.831 2.109c7.278 2.681 11.004 10.754 8.323 18.032a14.042 14.042 0 0 1-7.462 7.973l-.398-1.874a.637.637 0 0 0-1.049-.344l-3.837 3.426a.637.637 0 0 0 .231 1.084l4.899 1.564a.638.638 0 0 0 .819-.74l-.391-1.839a15.255 15.255 0 0 0 9.329-14.089zm-15.305-.637a.638.638 0 1 1 0 1.277.638.638 0 0 1 0-1.277zm2.101 14.864 2.184-1.948.603 2.84-2.787-.892z"
                style="fill: var(--color3, #2e2f42);"
            />
            <path
                fill="#4d5ae5"
                d="M15.354 3.185V4.46a.638.638 0 1 0 1.276 0V3.185a.638.638 0 0 0-1.276 0zM3.876 14.664a.638.638 0 0 0 0 1.276h1.275a.638.638 0 1 0 0-1.276H3.876zM28.108 15.939a.638.638 0 1 0 0-1.276h-1.275a.638.638 0 0 0 0 1.276h1.275z"
                style="fill: var(--color2, #4d5ae5);"
            />
        </symbol>

        <symbol id="icon-antenna-1" viewBox="0 0 32 32">
            <path
                fill="#2e2f42"
                d="m30.773 22.098-8.443-8.505.937-4.615c.242.094.499.144.758.146h.006a2.159 2.159 0 1 0-2.008-1.435l-4.96.605L8.972.161a.534.534 0 0 0-.377-.16.532.532 0 0 0-.373.155L6.709 1.66a.534.534 0 0 0 0 .754l.814.826a14.943 14.943 0 0 0 2.519 17.663.513.513 0 0 0 .146.098c-.034.18-.051.364-.052.547v6.187h-6.4a2.67 2.67 0 0 0-2.667 2.667v1.067c0 .295.239.533.533.533h24.533a.533.533 0 0 0 .533-.533v-1.067a2.67 2.67 0 0 0-2.667-2.667h-6.4v-2.742a15.09 15.09 0 0 0 3.049.32 14.854 14.854 0 0 0 7.04-1.783l.818.823a.534.534 0 0 0 .377.16.532.532 0 0 0 .373-.155l1.513-1.504a.534.534 0 0 0 0-.754zM23.28 6.233a1.067 1.067 0 1 1 .753 1.822h-.003a1.067 1.067 0 0 1-.747-1.823h-.002zm-1.256 3.505-.598 2.946-1.175-1.182 1.774-1.763zm-.605-.902-1.92 1.909-1.485-1.493 3.405-.415zM24.004 28.8a1.6 1.6 0 0 1 1.6 1.6v.533H2.137V30.4a1.6 1.6 0 0 1 1.6-1.6h20.267zm-7.467-2.133v1.067h-5.333v-1.067h5.333zM11.204 25.6v-4.053c0-1.294 1.196-2.347 2.667-2.347s2.667 1.053 2.667 2.347V25.6h-5.333zm6.4-1.696v-2.357c0-1.882-1.675-3.413-3.733-3.413a3.8 3.8 0 0 0-3.281 1.786A13.87 13.87 0 0 1 8.311 4.033l18.602 18.708a13.818 13.818 0 0 1-9.309 1.163zm11.289-.684L7.836 2.039l.755-.752 7.935 7.98c.004 0 .006.007.01.01l13.115 13.191-.757.752z"
                style="fill: var(--color3, #2e2f42);"
            />
            <path fill="#4d5ae5" d="M13.876 20.267h-.005a1.6 1.6 0 1 0-.004 3.2h.005a1.6 1.6 0 1 0 .004-3.2zm.373 1.978a.534.534 0 0 1-.752-.756.534.534 0 0 1 .373-.155.534.534 0 0 1 .374.911h.005z" style="fill: var(--color2, #4d5ae5);" />
        </symbol>

        <symbol id="icon-check-mark" viewBox="0 0 32 32">
            <path fill="#404bbf" style="fill: var(--color1, #404bbf);" d="M4 1h24c1.657 0 3 1.343 3 3v24c0 1.657-1.343 3-3 3h-24c-1.657 0-3-1.343-3-3v-24c0-1.657 1.343-3 3-3z"></path>
            <path
                fill="none"
                stroke="#404bbf"
                style="stroke: var(--color1, #404bbf);"
                stroke-linejoin="miter"
                stroke-linecap="butt"
                stroke-miterlimit="4"
                stroke-width="2"
                d="M4 1h24c1.657 0 3 1.343 3 3v24c0 1.657-1.343 3-3 3h-24c-1.657 0-3-1.343-3-3v-24c0-1.657 1.343-3 3-3z"
            ></path>
            <path
                fill="#f4f4fd"
                style="fill: var(--color2, #f4f4fd);"
                d="M22.891 8.51c0.346-0.331 0.805-0.514 1.283-0.51s0.934 0.193 1.275 0.53c0.341 0.336 0.538 0.792 0.551 1.272s-0.161 0.945-0.483 1.299l-9.789 12.309c-0.168 0.182-0.371 0.328-0.597 0.43s-0.47 0.156-0.717 0.161c-0.247 0.005-0.493-0.041-0.723-0.134s-0.438-0.232-0.613-0.408l-6.492-6.527c-0.181-0.169-0.326-0.374-0.426-0.601s-0.155-0.472-0.159-0.72c-0.004-0.248 0.041-0.495 0.134-0.725s0.23-0.44 0.405-0.615c0.175-0.176 0.383-0.314 0.612-0.407s0.475-0.139 0.722-0.134c0.247 0.004 0.491 0.059 0.716 0.16s0.429 0.247 0.597 0.429l5.137 5.163 8.521-10.915c0.015-0.019 0.032-0.037 0.049-0.054h-0.002z"
            ></path>
        </symbol>

        <symbol id="icon-close" viewBox="0 0 32 32">
            <path fill="#e7e9fc" style="fill: var(--color1, #e7e9fc);" d="M32 16c0 8.837-7.163 16-16 16s-16-7.163-16-16c0-8.837 7.163-16 16-16s16 7.163 16 16z"></path>
            <path
                fill="none"
                stroke="#000"
                style="stroke: var(--color2, #000);"
                stroke-linejoin="miter"
                stroke-linecap="butt"
                stroke-miterlimit="4"
                stroke-width="1.3333"
                d="M31.333 16c0 8.468-6.865 15.333-15.333 15.333s-15.333-6.865-15.333-15.333c0-8.468 6.865-15.333 15.333-15.333s15.333 6.865 15.333 15.333z"
            ></path>
            <path
                fill="#2e2f42"
                style="fill: var(--color3, #2e2f42);"
                d="M21.333 11.741l-1.074-1.074-4.259 4.259-4.259-4.259-1.074 1.074 4.259 4.259-4.259 4.259 1.074 1.074 4.259-4.259 4.259 4.259 1.074-1.074-4.259-4.259 4.259-4.259z"
            ></path>
        </symbol>
        
        <symbol id="icon-checkbox" viewBox="0 0 720 32">
            <path
                fill="none"
                stroke="#2e2f42"
                style="stroke: var(--color3, #2e2f42);"
                stroke-linejoin="miter"
                stroke-linecap="butt"
                stroke-miterlimit="4"
                stroke-width="2"
                d="M4 1h24c1.657 0 3 1.343 3 3v24c0 1.657-1.343 3-3 3h-24c-1.657 0-3-1.343-3-3v-24c0-1.657 1.343-3 3-3z"
            ></path>
            <path
                fill="#8e8f99"
                style="fill: var(--color4, #8e8f99);"
                d="M52.406 6.938v17.063h-2.262v-17.063h2.262zM71.541 21.832v-6.527c0-0.5-0.101-0.934-0.305-1.301-0.195-0.375-0.492-0.664-0.891-0.867s-0.891-0.305-1.477-0.305c-0.547 0-1.027 0.094-1.441 0.281-0.406 0.188-0.727 0.434-0.961 0.738-0.226 0.305-0.34 0.633-0.34 0.984h-2.168c0-0.453 0.117-0.902 0.352-1.348s0.57-0.848 1.008-1.207c0.445-0.367 0.977-0.656 1.594-0.867 0.625-0.219 1.32-0.328 2.086-0.328 0.922 0 1.734 0.156 2.437 0.469 0.711 0.313 1.266 0.785 1.664 1.418 0.406 0.625 0.609 1.41 0.609 2.355v5.906c0 0.422 0.035 0.871 0.106 1.348 0.078 0.477 0.191 0.887 0.34 1.23v0.188h-2.262c-0.109-0.25-0.195-0.582-0.258-0.996-0.062-0.422-0.094-0.813-0.094-1.172zM71.916 16.313l0.024 1.523h-2.191c-0.617 0-1.168 0.051-1.652 0.152-0.484 0.094-0.891 0.238-1.219 0.434s-0.578 0.441-0.75 0.738c-0.172 0.289-0.258 0.629-0.258 1.019 0 0.399 0.090 0.762 0.27 1.090s0.449 0.59 0.809 0.785c0.367 0.188 0.816 0.281 1.348 0.281 0.664 0 1.25-0.141 1.758-0.422s0.91-0.625 1.207-1.031c0.305-0.406 0.469-0.801 0.492-1.184l0.926 1.043c-0.055 0.328-0.203 0.691-0.445 1.090s-0.567 0.781-0.973 1.148c-0.398 0.359-0.875 0.66-1.43 0.902-0.547 0.234-1.164 0.352-1.852 0.352-0.859 0-1.613-0.168-2.262-0.504-0.641-0.336-1.141-0.785-1.5-1.348-0.351-0.57-0.527-1.207-0.527-1.91 0-0.68 0.133-1.277 0.398-1.793 0.266-0.523 0.648-0.957 1.148-1.301 0.5-0.352 1.102-0.617 1.805-0.797s1.488-0.27 2.356-0.27h2.519zM83.153 22.453c0.516 0 0.992-0.106 1.43-0.316s0.797-0.5 1.078-0.867c0.281-0.375 0.441-0.801 0.481-1.277h2.062c-0.039 0.75-0.293 1.449-0.762 2.098-0.461 0.641-1.066 1.16-1.816 1.559-0.75 0.391-1.574 0.586-2.473 0.586-0.953 0-1.785-0.168-2.496-0.504-0.703-0.336-1.289-0.797-1.758-1.383-0.461-0.586-0.809-1.258-1.043-2.016-0.227-0.766-0.34-1.574-0.34-2.426v-0.492c0-0.852 0.113-1.656 0.34-2.414 0.234-0.766 0.582-1.441 1.043-2.027 0.469-0.586 1.055-1.047 1.758-1.383 0.711-0.336 1.543-0.504 2.496-0.504 0.992 0 1.859 0.203 2.602 0.609 0.742 0.398 1.324 0.945 1.746 1.641 0.43 0.688 0.664 1.469 0.703 2.344h-2.062c-0.039-0.523-0.188-0.996-0.445-1.418-0.25-0.422-0.594-0.758-1.031-1.008-0.43-0.258-0.934-0.387-1.512-0.387-0.664 0-1.223 0.133-1.676 0.398-0.445 0.258-0.801 0.609-1.066 1.055-0.258 0.438-0.445 0.926-0.562 1.465-0.109 0.531-0.164 1.074-0.164 1.629v0.492c0 0.555 0.055 1.102 0.164 1.641s0.293 1.027 0.551 1.465c0.266 0.437 0.621 0.789 1.066 1.055 0.453 0.258 1.016 0.387 1.687 0.387zM96.676 22.453c0.516 0 0.992-0.106 1.43-0.316s0.797-0.5 1.078-0.867c0.281-0.375 0.441-0.801 0.48-1.277h2.063c-0.039 0.75-0.293 1.449-0.762 2.098-0.461 0.641-1.066 1.16-1.816 1.559-0.75 0.391-1.574 0.586-2.473 0.586-0.953 0-1.785-0.168-2.496-0.504-0.703-0.336-1.289-0.797-1.758-1.383-0.461-0.586-0.809-1.258-1.043-2.016-0.226-0.766-0.34-1.574-0.34-2.426v-0.492c0-0.852 0.113-1.656 0.34-2.414 0.234-0.766 0.582-1.441 1.043-2.027 0.469-0.586 1.055-1.047 1.758-1.383 0.711-0.336 1.543-0.504 2.496-0.504 0.992 0 1.859 0.203 2.602 0.609 0.742 0.398 1.324 0.945 1.746 1.641 0.43 0.688 0.664 1.469 0.703 2.344h-2.063c-0.039-0.523-0.187-0.996-0.445-1.418-0.25-0.422-0.594-0.758-1.031-1.008-0.43-0.258-0.934-0.387-1.512-0.387-0.664 0-1.223 0.133-1.676 0.398-0.445 0.258-0.801 0.609-1.066 1.055-0.258 0.438-0.445 0.926-0.563 1.465-0.109 0.531-0.164 1.074-0.164 1.629v0.492c0 0.555 0.055 1.102 0.164 1.641s0.293 1.027 0.551 1.465c0.266 0.437 0.621 0.789 1.066 1.055 0.453 0.258 1.016 0.387 1.688 0.387zM110.386 24.234c-0.883 0-1.684-0.148-2.402-0.445-0.711-0.305-1.324-0.73-1.84-1.277-0.508-0.547-0.898-1.195-1.172-1.945s-0.41-1.57-0.41-2.461v-0.492c0-1.031 0.152-1.949 0.457-2.754 0.305-0.813 0.719-1.5 1.242-2.063s1.117-0.988 1.781-1.277 1.352-0.434 2.062-0.434c0.906 0 1.688 0.156 2.344 0.469 0.664 0.313 1.207 0.75 1.629 1.313 0.422 0.555 0.734 1.211 0.937 1.969 0.203 0.75 0.305 1.57 0.305 2.461v0.973h-9.469v-1.77h7.301v-0.164c-0.031-0.563-0.148-1.109-0.352-1.641-0.195-0.531-0.508-0.969-0.938-1.313s-1.016-0.516-1.758-0.516c-0.492 0-0.945 0.105-1.359 0.316-0.414 0.203-0.77 0.508-1.066 0.914s-0.527 0.902-0.692 1.488c-0.164 0.586-0.246 1.262-0.246 2.027v0.492c0 0.602 0.082 1.168 0.246 1.699 0.172 0.524 0.418 0.984 0.738 1.383 0.328 0.398 0.723 0.711 1.184 0.937 0.469 0.227 1 0.34 1.594 0.34 0.766 0 1.414-0.156 1.945-0.469s0.996-0.73 1.395-1.254l1.312 1.043c-0.273 0.414-0.621 0.809-1.043 1.184s-0.941 0.68-1.558 0.914c-0.609 0.234-1.332 0.352-2.168 0.352zM120.979 13.758v15.117h-2.18v-17.555h1.992l0.188 2.438zM129.522 17.555v0.246c0 0.922-0.109 1.777-0.328 2.566-0.219 0.781-0.539 1.461-0.961 2.039-0.414 0.578-0.926 1.027-1.535 1.348s-1.309 0.48-2.098 0.48c-0.805 0-1.516-0.133-2.133-0.398s-1.141-0.652-1.57-1.16c-0.43-0.508-0.774-1.117-1.031-1.828-0.25-0.711-0.422-1.512-0.516-2.402v-1.313c0.094-0.938 0.27-1.777 0.527-2.52s0.598-1.375 1.020-1.898c0.43-0.531 0.949-0.934 1.559-1.207 0.609-0.281 1.312-0.422 2.109-0.422s1.504 0.156 2.121 0.469c0.617 0.305 1.137 0.742 1.559 1.313s0.738 1.254 0.949 2.051c0.219 0.789 0.328 1.668 0.328 2.637zM127.342 17.801v-0.246c0-0.633-0.066-1.227-0.199-1.781-0.133-0.563-0.34-1.055-0.621-1.477-0.274-0.43-0.625-0.766-1.055-1.008-0.43-0.25-0.941-0.375-1.535-0.375-0.547 0-1.023 0.094-1.43 0.281-0.398 0.188-0.738 0.441-1.020 0.762-0.281 0.313-0.512 0.672-0.691 1.078-0.172 0.398-0.301 0.813-0.387 1.242v3.035c0.156 0.547 0.375 1.063 0.656 1.547 0.281 0.477 0.656 0.863 1.125 1.16 0.469 0.289 1.059 0.434 1.77 0.434 0.586 0 1.090-0.121 1.512-0.363 0.43-0.25 0.781-0.59 1.055-1.019 0.281-0.43 0.488-0.922 0.621-1.477 0.133-0.563 0.199-1.16 0.199-1.793zM138.556 11.32v1.664h-6.856v-1.664h6.856zM134.021 8.238h2.168v12.621c0 0.43 0.066 0.754 0.199 0.973s0.305 0.363 0.516 0.434c0.211 0.070 0.437 0.105 0.68 0.105 0.18 0 0.367-0.016 0.563-0.047 0.203-0.039 0.355-0.070 0.457-0.094l0.012 1.77c-0.172 0.055-0.399 0.105-0.68 0.152-0.273 0.055-0.605 0.082-0.996 0.082-0.531 0-1.020-0.105-1.465-0.316s-0.801-0.563-1.066-1.055c-0.258-0.5-0.387-1.172-0.387-2.016v-12.609zM154.281 11.32v1.664h-6.855v-1.664h6.855zM149.745 8.238h2.168v12.621c0 0.43 0.066 0.754 0.199 0.973s0.305 0.363 0.516 0.434c0.211 0.070 0.438 0.105 0.68 0.105 0.18 0 0.367-0.016 0.562-0.047 0.203-0.039 0.356-0.070 0.457-0.094l0.012 1.77c-0.172 0.055-0.398 0.105-0.68 0.152-0.274 0.055-0.606 0.082-0.996 0.082-0.531 0-1.019-0.105-1.465-0.316s-0.801-0.563-1.066-1.055c-0.258-0.5-0.387-1.172-0.387-2.016v-12.609zM159.952 6v18h-2.168v-18h2.168zM159.436 17.18l-0.902-0.035c0.008-0.867 0.137-1.668 0.387-2.402 0.25-0.742 0.601-1.387 1.055-1.934s0.992-0.969 1.617-1.266c0.633-0.305 1.332-0.457 2.098-0.457 0.625 0 1.188 0.086 1.688 0.258 0.5 0.164 0.926 0.43 1.277 0.797 0.359 0.367 0.633 0.844 0.82 1.43 0.187 0.578 0.281 1.285 0.281 2.121v8.309h-2.18v-8.332c0-0.664-0.098-1.195-0.293-1.594-0.195-0.406-0.48-0.699-0.855-0.879-0.375-0.188-0.836-0.281-1.383-0.281-0.539 0-1.031 0.113-1.477 0.34-0.438 0.227-0.816 0.539-1.137 0.938-0.312 0.398-0.559 0.855-0.738 1.371-0.172 0.508-0.258 1.047-0.258 1.617zM177.224 24.234c-0.883 0-1.684-0.148-2.402-0.445-0.711-0.305-1.324-0.73-1.84-1.277-0.508-0.547-0.898-1.195-1.172-1.945s-0.41-1.57-0.41-2.461v-0.492c0-1.031 0.152-1.949 0.457-2.754 0.305-0.813 0.719-1.5 1.242-2.063s1.117-0.988 1.781-1.277c0.664-0.289 1.351-0.434 2.062-0.434 0.906 0 1.688 0.156 2.344 0.469 0.664 0.313 1.207 0.75 1.629 1.313 0.422 0.555 0.734 1.211 0.938 1.969 0.203 0.75 0.305 1.57 0.305 2.461v0.973h-9.469v-1.77h7.301v-0.164c-0.031-0.563-0.148-1.109-0.351-1.641-0.195-0.531-0.508-0.969-0.938-1.313s-1.016-0.516-1.758-0.516c-0.492 0-0.945 0.105-1.359 0.316-0.414 0.203-0.769 0.508-1.066 0.914s-0.527 0.902-0.691 1.488-0.246 1.262-0.246 2.027v0.492c0 0.602 0.082 1.168 0.246 1.699 0.172 0.524 0.418 0.984 0.738 1.383 0.328 0.398 0.723 0.711 1.183 0.937 0.469 0.227 1 0.34 1.594 0.34 0.766 0 1.414-0.156 1.945-0.469s0.996-0.73 1.394-1.254l1.313 1.043c-0.273 0.414-0.621 0.809-1.043 1.184s-0.941 0.68-1.559 0.914c-0.609 0.234-1.332 0.352-2.168 0.352zM197.871 11.32v1.664h-6.855v-1.664h6.855zM193.335 8.238h2.168v12.621c0 0.43 0.066 0.754 0.199 0.973s0.305 0.363 0.516 0.434c0.211 0.070 0.438 0.105 0.68 0.105 0.18 0 0.367-0.016 0.562-0.047 0.203-0.039 0.356-0.070 0.457-0.094l0.012 1.77c-0.172 0.055-0.398 0.105-0.68 0.152-0.274 0.055-0.606 0.082-0.996 0.082-0.531 0-1.019-0.105-1.465-0.316s-0.801-0.563-1.066-1.055c-0.258-0.5-0.387-1.172-0.387-2.016v-12.609zM206.636 24.234c-0.884 0-1.684-0.148-2.404-0.445-0.71-0.305-1.324-0.73-1.838-1.277-0.508-0.547-0.9-1.195-1.172-1.945-0.274-0.75-0.41-1.57-0.41-2.461v-0.492c0-1.031 0.152-1.949 0.456-2.754 0.304-0.813 0.718-1.5 1.242-2.063s1.118-0.988 1.782-1.277c0.664-0.289 1.352-0.434 2.062-0.434 0.906 0 1.688 0.156 2.344 0.469 0.664 0.313 1.206 0.75 1.628 1.313 0.422 0.555 0.736 1.211 0.938 1.969 0.204 0.75 0.304 1.57 0.304 2.461v0.973h-9.468v-1.77h7.3v-0.164c-0.030-0.563-0.148-1.109-0.35-1.641-0.196-0.531-0.508-0.969-0.938-1.313s-1.016-0.516-1.758-0.516c-0.492 0-0.946 0.105-1.36 0.316-0.414 0.203-0.768 0.508-1.066 0.914-0.296 0.406-0.528 0.902-0.692 1.488s-0.246 1.262-0.246 2.027v0.492c0 0.602 0.082 1.168 0.246 1.699 0.172 0.524 0.418 0.984 0.74 1.383 0.328 0.398 0.722 0.711 1.182 0.937 0.47 0.227 1 0.34 1.594 0.34 0.766 0 1.414-0.156 1.946-0.469s0.996-0.73 1.394-1.254l1.312 1.043c-0.272 0.414-0.62 0.809-1.042 1.184s-0.942 0.68-1.558 0.914c-0.61 0.234-1.332 0.352-2.168 0.352zM217.228 13.313v10.688h-2.168v-12.68h2.11l0.058 1.992zM221.19 11.25l-0.012 2.016c-0.18-0.039-0.352-0.063-0.516-0.070-0.156-0.016-0.336-0.023-0.54-0.023-0.5 0-0.94 0.078-1.324 0.234-0.382 0.156-0.706 0.375-0.972 0.656s-0.476 0.617-0.634 1.008c-0.148 0.383-0.246 0.805-0.292 1.266l-0.61 0.352c0-0.766 0.074-1.484 0.224-2.156 0.156-0.672 0.394-1.266 0.714-1.781 0.32-0.523 0.726-0.93 1.218-1.219 0.5-0.297 1.094-0.445 1.782-0.445 0.156 0 0.336 0.020 0.54 0.059 0.202 0.031 0.342 0.066 0.422 0.105zM226.31 13.84v10.16h-2.18v-12.68h2.062l0.118 2.52zM225.864 17.18l-1.008-0.035c0.008-0.867 0.122-1.668 0.34-2.402 0.218-0.742 0.542-1.387 0.972-1.934s0.966-0.969 1.606-1.266c0.64-0.305 1.382-0.457 2.226-0.457 0.594 0 1.142 0.086 1.642 0.258 0.5 0.164 0.932 0.426 1.3 0.785s0.652 0.82 0.856 1.383c0.202 0.563 0.304 1.242 0.304 2.039v8.449h-2.168v-8.344c0-0.664-0.114-1.195-0.34-1.594-0.218-0.398-0.53-0.688-0.938-0.867-0.406-0.188-0.882-0.281-1.428-0.281-0.642 0-1.176 0.113-1.606 0.34s-0.774 0.539-1.032 0.938c-0.258 0.398-0.444 0.855-0.562 1.371-0.11 0.508-0.164 1.047-0.164 1.617zM234.078 15.984l-1.452 0.445c0.008-0.695 0.12-1.363 0.34-2.004 0.226-0.641 0.55-1.211 0.972-1.711 0.43-0.5 0.958-0.895 1.582-1.184 0.626-0.297 1.34-0.445 2.144-0.445 0.68 0 1.282 0.090 1.806 0.27 0.53 0.18 0.976 0.457 1.336 0.832 0.366 0.367 0.644 0.84 0.832 1.418 0.186 0.578 0.28 1.266 0.28 2.063v8.332h-2.18v-8.355c0-0.711-0.112-1.262-0.338-1.652-0.22-0.398-0.532-0.676-0.938-0.832-0.398-0.164-0.876-0.246-1.43-0.246-0.476 0-0.898 0.082-1.266 0.246-0.366 0.164-0.676 0.391-0.926 0.68-0.25 0.281-0.44 0.605-0.574 0.973-0.124 0.367-0.188 0.758-0.188 1.172zM253.542 20.637c0-0.313-0.070-0.602-0.21-0.867-0.134-0.273-0.41-0.52-0.832-0.738-0.414-0.227-1.040-0.422-1.876-0.586-0.702-0.148-1.34-0.324-1.91-0.527-0.562-0.203-1.042-0.449-1.44-0.738-0.392-0.289-0.692-0.629-0.904-1.020-0.21-0.391-0.316-0.848-0.316-1.371 0-0.5 0.11-0.973 0.328-1.418 0.228-0.445 0.544-0.84 0.95-1.184 0.414-0.344 0.91-0.613 1.488-0.809s1.222-0.293 1.934-0.293c1.016 0 1.882 0.18 2.602 0.539 0.718 0.359 1.268 0.84 1.652 1.441 0.382 0.594 0.574 1.254 0.574 1.98h-2.168c0-0.352-0.106-0.691-0.316-1.020-0.204-0.336-0.504-0.613-0.904-0.832-0.39-0.219-0.87-0.328-1.44-0.328-0.602 0-1.090 0.094-1.466 0.281-0.366 0.18-0.636 0.41-0.808 0.691-0.164 0.281-0.246 0.578-0.246 0.891 0 0.234 0.040 0.445 0.118 0.633 0.086 0.18 0.234 0.348 0.444 0.504 0.212 0.148 0.508 0.289 0.892 0.422 0.382 0.133 0.87 0.266 1.464 0.398 1.040 0.234 1.894 0.516 2.566 0.844s1.172 0.73 1.5 1.207c0.328 0.477 0.492 1.055 0.492 1.734 0 0.555-0.116 1.063-0.35 1.523-0.228 0.461-0.56 0.859-0.998 1.195-0.428 0.328-0.944 0.586-1.546 0.773-0.594 0.18-1.262 0.27-2.004 0.27-1.118 0-2.062-0.199-2.836-0.598s-1.36-0.914-1.758-1.547-0.598-1.301-0.598-2.004h2.18c0.032 0.594 0.204 1.066 0.516 1.418 0.312 0.344 0.696 0.59 1.148 0.738 0.454 0.141 0.902 0.211 1.348 0.211 0.594 0 1.090-0.078 1.488-0.234 0.406-0.156 0.716-0.371 0.926-0.645 0.212-0.273 0.316-0.586 0.316-0.937zM273.908 21.832v-6.527c0-0.5-0.102-0.934-0.304-1.301-0.196-0.375-0.492-0.664-0.892-0.867-0.398-0.203-0.89-0.305-1.476-0.305-0.546 0-1.028 0.094-1.442 0.281-0.406 0.188-0.726 0.434-0.96 0.738-0.226 0.305-0.34 0.633-0.34 0.984h-2.168c0-0.453 0.118-0.902 0.352-1.348s0.57-0.848 1.008-1.207c0.444-0.367 0.976-0.656 1.594-0.867 0.624-0.219 1.32-0.328 2.086-0.328 0.92 0 1.734 0.156 2.436 0.469 0.712 0.313 1.266 0.785 1.664 1.418 0.406 0.625 0.61 1.41 0.61 2.355v5.906c0 0.422 0.036 0.871 0.106 1.348 0.078 0.477 0.19 0.887 0.34 1.23v0.188h-2.262c-0.11-0.25-0.196-0.582-0.258-0.996-0.062-0.422-0.094-0.813-0.094-1.172zM274.282 16.313l0.024 1.523h-2.19c-0.618 0-1.168 0.051-1.654 0.152-0.484 0.094-0.89 0.238-1.218 0.434s-0.578 0.441-0.75 0.738c-0.172 0.289-0.258 0.629-0.258 1.019 0 0.399 0.090 0.762 0.27 1.090s0.448 0.59 0.808 0.785c0.368 0.188 0.816 0.281 1.348 0.281 0.664 0 1.25-0.141 1.758-0.422s0.91-0.625 1.206-1.031c0.306-0.406 0.47-0.801 0.492-1.184l0.926 1.043c-0.054 0.328-0.202 0.691-0.444 1.090s-0.568 0.781-0.974 1.148c-0.398 0.359-0.874 0.66-1.428 0.902-0.548 0.234-1.166 0.352-1.852 0.352-0.86 0-1.614-0.168-2.262-0.504-0.64-0.336-1.14-0.785-1.5-1.348-0.352-0.57-0.528-1.207-0.528-1.91 0-0.68 0.134-1.277 0.398-1.793 0.266-0.523 0.65-0.957 1.15-1.301 0.5-0.352 1.1-0.617 1.804-0.797s1.488-0.27 2.356-0.27h2.518zM282.614 14.027v9.973h-2.168v-12.68h2.050l0.118 2.707zM282.098 17.18l-0.902-0.035c0.008-0.867 0.136-1.668 0.386-2.402 0.25-0.742 0.602-1.387 1.056-1.934 0.452-0.547 0.992-0.969 1.616-1.266 0.634-0.305 1.332-0.457 2.098-0.457 0.626 0 1.188 0.086 1.688 0.258 0.5 0.164 0.926 0.43 1.278 0.797 0.358 0.367 0.632 0.844 0.82 1.43 0.186 0.578 0.28 1.285 0.28 2.121v8.309h-2.178v-8.332c0-0.664-0.098-1.195-0.294-1.594-0.196-0.406-0.48-0.699-0.856-0.879-0.374-0.188-0.836-0.281-1.382-0.281-0.54 0-1.032 0.113-1.476 0.34-0.438 0.227-0.818 0.539-1.138 0.938-0.312 0.398-0.558 0.855-0.738 1.371-0.172 0.508-0.258 1.047-0.258 1.617zM302.664 21.539v-15.539h2.18v18h-1.992l-0.188-2.461zM294.132 17.801v-0.246c0-0.969 0.118-1.848 0.352-2.637 0.242-0.797 0.582-1.48 1.020-2.051 0.446-0.57 0.972-1.008 1.582-1.313 0.616-0.313 1.304-0.469 2.062-0.469 0.798 0 1.492 0.141 2.086 0.422 0.602 0.273 1.11 0.676 1.524 1.207 0.422 0.523 0.754 1.156 0.996 1.898s0.41 1.582 0.504 2.52v1.078c-0.086 0.93-0.254 1.766-0.504 2.508-0.242 0.742-0.574 1.375-0.996 1.898-0.414 0.523-0.922 0.926-1.524 1.207-0.602 0.273-1.304 0.41-2.11 0.41-0.742 0-1.422-0.16-2.038-0.48-0.61-0.32-1.136-0.77-1.582-1.348-0.438-0.578-0.778-1.258-1.020-2.039-0.234-0.789-0.352-1.645-0.352-2.566zM296.312 17.555v0.246c0 0.633 0.062 1.227 0.188 1.781 0.132 0.555 0.336 1.043 0.61 1.465 0.272 0.422 0.62 0.754 1.042 0.996 0.422 0.234 0.926 0.352 1.512 0.352 0.718 0 1.308-0.152 1.77-0.457 0.468-0.305 0.844-0.707 1.124-1.207 0.282-0.5 0.5-1.043 0.656-1.629v-2.824c-0.094-0.43-0.23-0.844-0.41-1.242-0.172-0.406-0.398-0.766-0.68-1.078-0.272-0.32-0.612-0.574-1.018-0.762-0.4-0.188-0.872-0.281-1.418-0.281-0.594 0-1.106 0.125-1.536 0.375-0.422 0.242-0.77 0.578-1.042 1.008-0.274 0.422-0.478 0.914-0.61 1.477-0.126 0.555-0.188 1.148-0.188 1.781zM321.166 22.453c0.516 0 0.992-0.106 1.43-0.316s0.796-0.5 1.078-0.867c0.28-0.375 0.442-0.801 0.48-1.277h2.062c-0.038 0.75-0.292 1.449-0.762 2.098-0.46 0.641-1.066 1.16-1.816 1.559-0.75 0.391-1.574 0.586-2.472 0.586-0.954 0-1.786-0.168-2.496-0.504-0.704-0.336-1.29-0.797-1.758-1.383-0.46-0.586-0.808-1.258-1.042-2.016-0.228-0.766-0.34-1.574-0.34-2.426v-0.492c0-0.852 0.112-1.656 0.34-2.414 0.234-0.766 0.582-1.441 1.042-2.027 0.468-0.586 1.054-1.047 1.758-1.383 0.71-0.336 1.542-0.504 2.496-0.504 0.992 0 1.86 0.203 2.602 0.609 0.742 0.398 1.324 0.945 1.746 1.641 0.43 0.688 0.664 1.469 0.702 2.344h-2.062c-0.038-0.523-0.188-0.996-0.446-1.418-0.25-0.422-0.592-0.758-1.030-1.008-0.43-0.258-0.934-0.387-1.512-0.387-0.664 0-1.222 0.133-1.676 0.398-0.446 0.258-0.8 0.609-1.066 1.055-0.258 0.438-0.446 0.926-0.562 1.465-0.11 0.531-0.164 1.074-0.164 1.629v0.492c0 0.555 0.054 1.102 0.164 1.641 0.108 0.539 0.292 1.027 0.55 1.465 0.266 0.437 0.622 0.789 1.066 1.055 0.454 0.258 1.016 0.387 1.688 0.387zM329.040 17.801v-0.27c0-0.914 0.132-1.762 0.398-2.543 0.266-0.789 0.648-1.473 1.148-2.051 0.5-0.586 1.106-1.039 1.818-1.359 0.71-0.328 1.508-0.492 2.39-0.492 0.89 0 1.692 0.164 2.402 0.492 0.72 0.32 1.328 0.773 1.828 1.359 0.508 0.578 0.894 1.262 1.16 2.051 0.266 0.781 0.398 1.629 0.398 2.543v0.27c0 0.914-0.132 1.762-0.398 2.543s-0.652 1.465-1.16 2.051c-0.5 0.578-1.106 1.031-1.816 1.359-0.704 0.32-1.5 0.48-2.39 0.48-0.892 0-1.692-0.16-2.402-0.48-0.712-0.328-1.322-0.781-1.83-1.359-0.5-0.586-0.882-1.27-1.148-2.051s-0.398-1.629-0.398-2.543zM331.208 17.531v0.27c0 0.633 0.074 1.23 0.222 1.793 0.15 0.555 0.372 1.047 0.668 1.477 0.306 0.43 0.684 0.769 1.138 1.019 0.452 0.242 0.98 0.363 1.582 0.363 0.594 0 1.112-0.121 1.558-0.363 0.454-0.25 0.828-0.59 1.124-1.019 0.298-0.43 0.52-0.922 0.668-1.477 0.158-0.563 0.236-1.16 0.236-1.793v-0.27c0-0.625-0.078-1.215-0.236-1.77-0.148-0.563-0.374-1.059-0.678-1.488-0.298-0.438-0.672-0.781-1.126-1.031-0.446-0.25-0.968-0.375-1.57-0.375-0.594 0-1.118 0.125-1.57 0.375-0.446 0.25-0.82 0.594-1.126 1.031-0.296 0.43-0.518 0.926-0.668 1.488-0.148 0.555-0.222 1.145-0.222 1.77zM346.43 14.027v9.973h-2.168v-12.68h2.050l0.118 2.707zM345.914 17.18l-0.902-0.035c0.008-0.867 0.136-1.668 0.386-2.402 0.25-0.742 0.602-1.387 1.056-1.934 0.452-0.547 0.992-0.969 1.616-1.266 0.634-0.305 1.332-0.457 2.098-0.457 0.624 0 1.188 0.086 1.688 0.258 0.5 0.164 0.926 0.43 1.276 0.797 0.36 0.367 0.634 0.844 0.822 1.43 0.186 0.578 0.28 1.285 0.28 2.121v8.309h-2.18v-8.332c0-0.664-0.096-1.195-0.292-1.594-0.196-0.406-0.48-0.699-0.856-0.879-0.374-0.188-0.836-0.281-1.382-0.281-0.54 0-1.032 0.113-1.478 0.34-0.436 0.227-0.816 0.539-1.136 0.938-0.312 0.398-0.558 0.855-0.738 1.371-0.172 0.508-0.258 1.047-0.258 1.617zM366.48 21.539v-15.539h2.18v18h-1.992l-0.188-2.461zM357.948 17.801v-0.246c0-0.969 0.118-1.848 0.352-2.637 0.242-0.797 0.582-1.48 1.020-2.051 0.444-0.57 0.972-1.008 1.582-1.313 0.616-0.313 1.304-0.469 2.062-0.469 0.796 0 1.492 0.141 2.086 0.422 0.602 0.273 1.11 0.676 1.524 1.207 0.422 0.523 0.754 1.156 0.996 1.898s0.41 1.582 0.504 2.52v1.078c-0.086 0.93-0.254 1.766-0.504 2.508-0.242 0.742-0.574 1.375-0.996 1.898-0.414 0.523-0.922 0.926-1.524 1.207-0.602 0.273-1.304 0.41-2.11 0.41-0.742 0-1.422-0.16-2.038-0.48-0.61-0.32-1.138-0.77-1.582-1.348-0.438-0.578-0.778-1.258-1.020-2.039-0.234-0.789-0.352-1.645-0.352-2.566zM360.128 17.555v0.246c0 0.633 0.062 1.227 0.188 1.781 0.132 0.555 0.336 1.043 0.608 1.465 0.274 0.422 0.622 0.754 1.044 0.996 0.422 0.234 0.926 0.352 1.512 0.352 0.718 0 1.308-0.152 1.77-0.457 0.468-0.305 0.842-0.707 1.124-1.207s0.5-1.043 0.656-1.629v-2.824c-0.094-0.43-0.23-0.844-0.41-1.242-0.172-0.406-0.398-0.766-0.68-1.078-0.272-0.32-0.612-0.574-1.020-0.762-0.398-0.188-0.87-0.281-1.418-0.281-0.592 0-1.104 0.125-1.534 0.375-0.422 0.242-0.77 0.578-1.044 1.008-0.272 0.422-0.476 0.914-0.608 1.477-0.126 0.555-0.188 1.148-0.188 1.781zM375.35 11.32v12.68h-2.18v-12.68h2.18zM373.006 7.957c0-0.352 0.106-0.648 0.316-0.891 0.22-0.242 0.54-0.363 0.962-0.363 0.414 0 0.73 0.121 0.948 0.363 0.228 0.242 0.34 0.539 0.34 0.891 0 0.336-0.112 0.625-0.34 0.867-0.218 0.234-0.534 0.352-0.948 0.352-0.422 0-0.742-0.117-0.962-0.352-0.21-0.242-0.316-0.531-0.316-0.867zM385.098 11.32v1.664h-6.854v-1.664h6.854zM380.564 8.238h2.168v12.621c0 0.43 0.066 0.754 0.198 0.973 0.134 0.219 0.306 0.363 0.516 0.434 0.212 0.070 0.438 0.105 0.68 0.105 0.18 0 0.368-0.016 0.562-0.047 0.204-0.039 0.356-0.070 0.458-0.094l0.012 1.77c-0.172 0.055-0.4 0.105-0.68 0.152-0.274 0.055-0.606 0.082-0.996 0.082-0.532 0-1.020-0.105-1.466-0.316-0.444-0.211-0.8-0.563-1.066-1.055-0.258-0.5-0.386-1.172-0.386-2.016v-12.609zM390.958 11.32v12.68h-2.18v-12.68h2.18zM388.614 7.957c0-0.352 0.104-0.648 0.316-0.891 0.218-0.242 0.538-0.363 0.96-0.363 0.414 0 0.732 0.121 0.95 0.363 0.226 0.242 0.34 0.539 0.34 0.891 0 0.336-0.114 0.625-0.34 0.867-0.218 0.234-0.536 0.352-0.95 0.352-0.422 0-0.742-0.117-0.96-0.352-0.212-0.242-0.316-0.531-0.316-0.867zM394.824 17.801v-0.27c0-0.914 0.132-1.762 0.398-2.543 0.266-0.789 0.648-1.473 1.148-2.051 0.5-0.586 1.106-1.039 1.816-1.359 0.712-0.328 1.508-0.492 2.392-0.492 0.89 0 1.69 0.164 2.402 0.492 0.718 0.32 1.328 0.773 1.828 1.359 0.508 0.578 0.894 1.262 1.16 2.051 0.266 0.781 0.398 1.629 0.398 2.543v0.27c0 0.914-0.132 1.762-0.398 2.543s-0.652 1.465-1.16 2.051c-0.5 0.578-1.106 1.031-1.816 1.359-0.704 0.32-1.5 0.48-2.392 0.48-0.89 0-1.69-0.16-2.402-0.48-0.71-0.328-1.32-0.781-1.828-1.359-0.5-0.586-0.882-1.27-1.148-2.051s-0.398-1.629-0.398-2.543zM396.992 17.531v0.27c0 0.633 0.074 1.23 0.222 1.793 0.148 0.555 0.372 1.047 0.668 1.477 0.304 0.43 0.684 0.769 1.136 1.019 0.454 0.242 0.982 0.363 1.582 0.363 0.594 0 1.114-0.121 1.56-0.363 0.452-0.25 0.828-0.59 1.124-1.019 0.298-0.43 0.52-0.922 0.668-1.477 0.156-0.563 0.234-1.16 0.234-1.793v-0.27c0-0.625-0.078-1.215-0.234-1.77-0.148-0.563-0.374-1.059-0.68-1.488-0.296-0.438-0.672-0.781-1.124-1.031-0.446-0.25-0.97-0.375-1.57-0.375-0.594 0-1.118 0.125-1.57 0.375-0.446 0.25-0.822 0.594-1.126 1.031-0.296 0.43-0.52 0.926-0.668 1.488-0.148 0.555-0.222 1.145-0.222 1.77zM412.214 14.027v9.973h-2.168v-12.68h2.050l0.118 2.707zM411.698 17.18l-0.902-0.035c0.006-0.867 0.136-1.668 0.386-2.402 0.25-0.742 0.602-1.387 1.054-1.934 0.454-0.547 0.992-0.969 1.618-1.266 0.632-0.305 1.332-0.457 2.098-0.457 0.624 0 1.186 0.086 1.686 0.258 0.5 0.164 0.926 0.43 1.278 0.797 0.36 0.367 0.634 0.844 0.82 1.43 0.188 0.578 0.282 1.285 0.282 2.121v8.309h-2.18v-8.332c0-0.664-0.098-1.195-0.292-1.594-0.196-0.406-0.482-0.699-0.856-0.879-0.376-0.188-0.836-0.281-1.384-0.281-0.538 0-1.030 0.113-1.476 0.34-0.438 0.227-0.816 0.539-1.136 0.938-0.312 0.398-0.558 0.855-0.738 1.371-0.172 0.508-0.258 1.047-0.258 1.617zM431.654 20.637c0-0.313-0.070-0.602-0.212-0.867-0.132-0.273-0.41-0.52-0.832-0.738-0.414-0.227-1.038-0.422-1.874-0.586-0.704-0.148-1.34-0.324-1.91-0.527-0.564-0.203-1.044-0.449-1.442-0.738-0.39-0.289-0.692-0.629-0.902-1.020-0.212-0.391-0.316-0.848-0.316-1.371 0-0.5 0.108-0.973 0.328-1.418 0.226-0.445 0.542-0.84 0.948-1.184 0.414-0.344 0.91-0.613 1.488-0.809 0.58-0.195 1.224-0.293 1.934-0.293 1.016 0 1.884 0.18 2.602 0.539s1.27 0.84 1.652 1.441c0.384 0.594 0.574 1.254 0.574 1.98h-2.168c0-0.352-0.104-0.691-0.316-1.020-0.202-0.336-0.504-0.613-0.902-0.832-0.39-0.219-0.872-0.328-1.442-0.328-0.602 0-1.090 0.094-1.464 0.281-0.368 0.18-0.638 0.41-0.808 0.691-0.164 0.281-0.246 0.578-0.246 0.891 0 0.234 0.038 0.445 0.116 0.633 0.086 0.18 0.234 0.348 0.446 0.504 0.21 0.148 0.508 0.289 0.89 0.422s0.872 0.266 1.464 0.398c1.040 0.234 1.896 0.516 2.568 0.844s1.172 0.73 1.5 1.207c0.328 0.477 0.492 1.055 0.492 1.734 0 0.555-0.118 1.063-0.352 1.523-0.226 0.461-0.558 0.859-0.996 1.195-0.43 0.328-0.946 0.586-1.546 0.773-0.594 0.18-1.262 0.27-2.004 0.27-1.118 0-2.064-0.199-2.836-0.598-0.774-0.399-1.36-0.914-1.758-1.547-0.4-0.633-0.598-1.301-0.598-2.004h2.18c0.030 0.594 0.202 1.066 0.516 1.418 0.312 0.344 0.694 0.59 1.148 0.738 0.452 0.141 0.902 0.211 1.348 0.211 0.592 0 1.088-0.078 1.488-0.234 0.406-0.156 0.714-0.371 0.926-0.645 0.21-0.273 0.316-0.586 0.316-0.937zM443.968 17.801v-0.27c0-0.914 0.132-1.762 0.398-2.543 0.266-0.789 0.648-1.473 1.148-2.051 0.5-0.586 1.106-1.039 1.818-1.359 0.71-0.328 1.508-0.492 2.39-0.492 0.89 0 1.692 0.164 2.402 0.492 0.72 0.32 1.328 0.773 1.828 1.359 0.508 0.578 0.896 1.262 1.16 2.051 0.266 0.781 0.4 1.629 0.4 2.543v0.27c0 0.914-0.134 1.762-0.4 2.543-0.264 0.781-0.652 1.465-1.16 2.051-0.5 0.578-1.104 1.031-1.816 1.359-0.704 0.32-1.5 0.48-2.39 0.48-0.892 0-1.692-0.16-2.402-0.48-0.712-0.328-1.322-0.781-1.83-1.359-0.5-0.586-0.882-1.27-1.148-2.051s-0.398-1.629-0.398-2.543zM446.136 17.531v0.27c0 0.633 0.074 1.23 0.222 1.793 0.15 0.555 0.372 1.047 0.668 1.477 0.306 0.43 0.684 0.769 1.138 1.019 0.452 0.242 0.98 0.363 1.582 0.363 0.594 0 1.112-0.121 1.558-0.363 0.454-0.25 0.828-0.59 1.126-1.019 0.296-0.43 0.518-0.922 0.668-1.477 0.156-0.563 0.234-1.16 0.234-1.793v-0.27c0-0.625-0.078-1.215-0.234-1.77-0.15-0.563-0.376-1.059-0.68-1.488-0.298-0.438-0.672-0.781-1.126-1.031-0.444-0.25-0.968-0.375-1.57-0.375-0.594 0-1.118 0.125-1.57 0.375-0.446 0.25-0.82 0.594-1.126 1.031-0.296 0.43-0.518 0.926-0.668 1.488-0.148 0.555-0.222 1.145-0.222 1.77zM462.424 24h-2.168v-14.016c0-0.914 0.164-1.684 0.492-2.309 0.336-0.633 0.816-1.109 1.442-1.43 0.624-0.328 1.368-0.492 2.226-0.492 0.25 0 0.5 0.016 0.75 0.047 0.258 0.031 0.508 0.078 0.75 0.141l-0.116 1.77c-0.164-0.039-0.352-0.066-0.564-0.082-0.202-0.016-0.406-0.023-0.608-0.023-0.462 0-0.86 0.094-1.196 0.281-0.328 0.18-0.578 0.445-0.75 0.797s-0.258 0.785-0.258 1.301v14.016zM465.12 11.32v1.664h-6.868v-1.664h6.868zM480.716 11.32v1.664h-6.856v-1.664h6.856zM476.18 8.238h2.168v12.621c0 0.43 0.066 0.754 0.2 0.973 0.132 0.219 0.304 0.363 0.514 0.434 0.212 0.070 0.438 0.105 0.68 0.105 0.18 0 0.368-0.016 0.564-0.047 0.202-0.039 0.354-0.070 0.456-0.094l0.012 1.77c-0.172 0.055-0.398 0.105-0.68 0.152-0.274 0.055-0.606 0.082-0.996 0.082-0.532 0-1.020-0.105-1.464-0.316-0.446-0.211-0.802-0.563-1.068-1.055-0.256-0.5-0.386-1.172-0.386-2.016v-12.609zM486.386 6v18h-2.168v-18h2.168zM485.87 17.18l-0.902-0.035c0.008-0.867 0.138-1.668 0.388-2.402 0.25-0.742 0.6-1.387 1.054-1.934 0.452-0.547 0.992-0.969 1.616-1.266 0.634-0.305 1.332-0.457 2.098-0.457 0.626 0 1.188 0.086 1.688 0.258 0.5 0.164 0.926 0.43 1.278 0.797 0.358 0.367 0.632 0.844 0.82 1.43 0.188 0.578 0.28 1.285 0.28 2.121v8.309h-2.178v-8.332c0-0.664-0.098-1.195-0.294-1.594-0.196-0.406-0.48-0.699-0.856-0.879-0.374-0.188-0.836-0.281-1.382-0.281-0.54 0-1.032 0.113-1.476 0.34-0.438 0.227-0.816 0.539-1.138 0.938-0.312 0.398-0.558 0.855-0.738 1.371-0.172 0.508-0.258 1.047-0.258 1.617zM503.658 24.234c-0.882 0-1.682-0.148-2.402-0.445-0.71-0.305-1.324-0.73-1.84-1.277-0.508-0.547-0.898-1.195-1.172-1.945-0.272-0.75-0.41-1.57-0.41-2.461v-0.492c0-1.031 0.152-1.949 0.458-2.754 0.304-0.813 0.718-1.5 1.242-2.063s1.116-0.988 1.782-1.277c0.664-0.289 1.35-0.434 2.062-0.434 0.906 0 1.688 0.156 2.344 0.469 0.664 0.313 1.206 0.75 1.628 1.313 0.422 0.555 0.734 1.211 0.938 1.969 0.202 0.75 0.304 1.57 0.304 2.461v0.973h-9.468v-1.77h7.3v-0.164c-0.030-0.563-0.148-1.109-0.352-1.641-0.194-0.531-0.506-0.969-0.936-1.313s-1.016-0.516-1.758-0.516c-0.492 0-0.946 0.105-1.36 0.316-0.414 0.203-0.77 0.508-1.066 0.914-0.298 0.406-0.528 0.902-0.692 1.488s-0.246 1.262-0.246 2.027v0.492c0 0.602 0.082 1.168 0.246 1.699 0.172 0.524 0.418 0.984 0.738 1.383 0.328 0.398 0.724 0.711 1.184 0.937 0.468 0.227 1 0.34 1.594 0.34 0.766 0 1.414-0.156 1.946-0.469 0.53-0.312 0.996-0.73 1.394-1.254l1.312 1.043c-0.274 0.414-0.62 0.809-1.042 1.184s-0.942 0.68-1.56 0.914c-0.608 0.234-1.332 0.352-2.168 0.352z"
            ></path>
            <path
                fill="#4d5ae5"
                style="fill: var(--color5, #4d5ae5);"
                d="M525.618 17.309h-4.558v-1.84h4.558c0.882 0 1.598-0.141 2.144-0.422 0.548-0.281 0.946-0.672 1.196-1.172 0.258-0.5 0.386-1.070 0.386-1.711 0-0.586-0.128-1.137-0.386-1.652-0.25-0.516-0.648-0.93-1.196-1.242-0.546-0.32-1.262-0.48-2.144-0.48h-4.032v15.211h-2.262v-17.063h6.294c1.288 0 2.378 0.223 3.27 0.668 0.89 0.445 1.566 1.063 2.026 1.852 0.462 0.781 0.692 1.676 0.692 2.684 0 1.094-0.23 2.027-0.692 2.801-0.46 0.773-1.136 1.363-2.026 1.77-0.892 0.398-1.982 0.598-3.27 0.598zM537.266 13.313v10.688h-2.168v-12.68h2.108l0.060 1.992zM541.226 11.25l-0.012 2.016c-0.18-0.039-0.352-0.063-0.516-0.070-0.156-0.016-0.336-0.023-0.538-0.023-0.5 0-0.942 0.078-1.324 0.234-0.384 0.156-0.708 0.375-0.974 0.656-0.264 0.281-0.476 0.617-0.632 1.008-0.148 0.383-0.246 0.805-0.292 1.266l-0.61 0.352c0-0.766 0.074-1.484 0.222-2.156 0.156-0.672 0.396-1.266 0.716-1.781 0.32-0.523 0.726-0.93 1.218-1.219 0.5-0.297 1.094-0.445 1.782-0.445 0.156 0 0.336 0.020 0.538 0.059 0.204 0.031 0.344 0.066 0.422 0.105zM546.546 11.32v12.68h-2.18v-12.68h2.18zM544.202 7.957c0-0.352 0.106-0.648 0.316-0.891 0.22-0.242 0.54-0.363 0.962-0.363 0.414 0 0.73 0.121 0.948 0.363 0.226 0.242 0.34 0.539 0.34 0.891 0 0.336-0.114 0.625-0.34 0.867-0.218 0.234-0.534 0.352-0.948 0.352-0.422 0-0.742-0.117-0.962-0.352-0.21-0.242-0.316-0.531-0.316-0.867zM554.842 22.043l3.468-10.723h2.216l-4.56 12.68h-1.452l0.328-1.957zM551.948 11.32l3.574 10.781 0.246 1.898h-1.454l-4.594-12.68h2.228zM570.86 21.832v-6.527c0-0.5-0.102-0.934-0.304-1.301-0.196-0.375-0.492-0.664-0.892-0.867-0.398-0.203-0.89-0.305-1.476-0.305-0.546 0-1.028 0.094-1.442 0.281-0.406 0.188-0.726 0.434-0.96 0.738-0.226 0.305-0.34 0.633-0.34 0.984h-2.168c0-0.453 0.118-0.902 0.352-1.348s0.57-0.848 1.008-1.207c0.444-0.367 0.976-0.656 1.594-0.867 0.624-0.219 1.32-0.328 2.086-0.328 0.922 0 1.734 0.156 2.436 0.469 0.712 0.313 1.266 0.785 1.664 1.418 0.408 0.625 0.61 1.41 0.61 2.355v5.906c0 0.422 0.036 0.871 0.106 1.348 0.078 0.477 0.192 0.887 0.34 1.23v0.188h-2.262c-0.11-0.25-0.196-0.582-0.258-0.996-0.062-0.422-0.094-0.813-0.094-1.172zM571.236 16.313l0.022 1.523h-2.19c-0.618 0-1.168 0.051-1.654 0.152-0.484 0.094-0.89 0.238-1.218 0.434s-0.578 0.441-0.75 0.738c-0.172 0.289-0.258 0.629-0.258 1.019 0 0.399 0.090 0.762 0.27 1.090s0.45 0.59 0.808 0.785c0.368 0.188 0.816 0.281 1.348 0.281 0.664 0 1.25-0.141 1.758-0.422s0.91-0.625 1.206-1.031c0.306-0.406 0.47-0.801 0.494-1.184l0.924 1.043c-0.054 0.328-0.202 0.691-0.444 1.090s-0.566 0.781-0.974 1.148c-0.398 0.359-0.874 0.66-1.428 0.902-0.548 0.234-1.164 0.352-1.852 0.352-0.86 0-1.614-0.168-2.262-0.504-0.64-0.336-1.14-0.785-1.5-1.348-0.352-0.57-0.528-1.207-0.528-1.91 0-0.68 0.134-1.277 0.4-1.793 0.264-0.523 0.648-0.957 1.148-1.301 0.5-0.352 1.102-0.617 1.804-0.797 0.704-0.18 1.488-0.27 2.356-0.27h2.52zM582.472 22.453c0.516 0 0.992-0.106 1.43-0.316s0.798-0.5 1.078-0.867c0.282-0.375 0.442-0.801 0.48-1.277h2.064c-0.040 0.75-0.294 1.449-0.762 2.098-0.462 0.641-1.066 1.16-1.816 1.559-0.75 0.391-1.576 0.586-2.474 0.586-0.952 0-1.784-0.168-2.496-0.504-0.702-0.336-1.288-0.797-1.758-1.383-0.46-0.586-0.808-1.258-1.042-2.016-0.226-0.766-0.34-1.574-0.34-2.426v-0.492c0-0.852 0.114-1.656 0.34-2.414 0.234-0.766 0.582-1.441 1.042-2.027 0.47-0.586 1.056-1.047 1.758-1.383 0.712-0.336 1.544-0.504 2.496-0.504 0.992 0 1.86 0.203 2.602 0.609 0.742 0.398 1.324 0.945 1.746 1.641 0.43 0.688 0.664 1.469 0.704 2.344h-2.064c-0.038-0.523-0.186-0.996-0.444-1.418-0.25-0.422-0.594-0.758-1.032-1.008-0.43-0.258-0.934-0.387-1.512-0.387-0.664 0-1.222 0.133-1.676 0.398-0.444 0.258-0.8 0.609-1.066 1.055-0.258 0.438-0.446 0.926-0.562 1.465-0.11 0.531-0.164 1.074-0.164 1.629v0.492c0 0.555 0.054 1.102 0.164 1.641s0.292 1.027 0.55 1.465c0.266 0.437 0.622 0.789 1.066 1.055 0.454 0.258 1.016 0.387 1.688 0.387zM594.484 22.688l3.526-11.367h2.32l-5.086 14.637c-0.116 0.313-0.272 0.648-0.468 1.008-0.188 0.367-0.43 0.715-0.726 1.043-0.298 0.328-0.656 0.594-1.078 0.797-0.414 0.211-0.91 0.316-1.488 0.316-0.172 0-0.392-0.023-0.656-0.070-0.266-0.047-0.454-0.086-0.564-0.117l-0.012-1.758c0.064 0.008 0.16 0.016 0.294 0.023 0.14 0.016 0.238 0.023 0.292 0.023 0.492 0 0.91-0.066 1.254-0.199 0.344-0.125 0.634-0.34 0.868-0.644 0.242-0.297 0.45-0.707 0.62-1.231l0.904-2.461zM591.894 11.32l3.292 9.844 0.562 2.285-1.558 0.797-4.664-12.926h2.368zM616.782 17.309h-4.558v-1.84h4.558c0.882 0 1.598-0.141 2.144-0.422 0.548-0.281 0.946-0.672 1.196-1.172 0.258-0.5 0.386-1.070 0.386-1.711 0-0.586-0.128-1.137-0.386-1.652-0.25-0.516-0.648-0.93-1.196-1.242-0.546-0.32-1.262-0.48-2.144-0.48h-4.032v15.211h-2.26v-17.063h6.292c1.29 0 2.38 0.223 3.27 0.668s1.566 1.063 2.028 1.852c0.46 0.781 0.69 1.676 0.69 2.684 0 1.094-0.23 2.027-0.69 2.801-0.462 0.773-1.138 1.363-2.028 1.77-0.89 0.398-1.98 0.598-3.27 0.598zM625.524 17.801v-0.27c0-0.914 0.132-1.762 0.398-2.543 0.266-0.789 0.648-1.473 1.148-2.051 0.5-0.586 1.106-1.039 1.816-1.359 0.712-0.328 1.508-0.492 2.392-0.492 0.89 0 1.69 0.164 2.402 0.492 0.718 0.32 1.328 0.773 1.828 1.359 0.508 0.578 0.894 1.262 1.16 2.051 0.266 0.781 0.398 1.629 0.398 2.543v0.27c0 0.914-0.132 1.762-0.398 2.543s-0.652 1.465-1.16 2.051c-0.5 0.578-1.106 1.031-1.816 1.359-0.704 0.32-1.5 0.48-2.392 0.48-0.89 0-1.69-0.16-2.402-0.48-0.71-0.328-1.32-0.781-1.828-1.359-0.5-0.586-0.882-1.27-1.148-2.051s-0.398-1.629-0.398-2.543zM627.692 17.531v0.27c0 0.633 0.074 1.23 0.222 1.793 0.148 0.555 0.372 1.047 0.668 1.477 0.304 0.43 0.684 0.769 1.136 1.019 0.454 0.242 0.982 0.363 1.582 0.363 0.594 0 1.114-0.121 1.56-0.363 0.452-0.25 0.828-0.59 1.124-1.019 0.298-0.43 0.52-0.922 0.668-1.477 0.156-0.563 0.234-1.16 0.234-1.793v-0.27c0-0.625-0.078-1.215-0.234-1.77-0.148-0.563-0.374-1.059-0.68-1.488-0.296-0.438-0.672-0.781-1.124-1.031-0.446-0.25-0.97-0.375-1.57-0.375-0.594 0-1.118 0.125-1.57 0.375-0.446 0.25-0.822 0.594-1.126 1.031-0.296 0.43-0.52 0.926-0.668 1.488-0.148 0.555-0.222 1.145-0.222 1.77zM643.1 6v18h-2.18v-18h2.18zM649.896 11.32v12.68h-2.18v-12.68h2.18zM647.552 7.957c0-0.352 0.106-0.648 0.318-0.891 0.218-0.242 0.538-0.363 0.96-0.363 0.414 0 0.73 0.121 0.95 0.363 0.226 0.242 0.34 0.539 0.34 0.891 0 0.336-0.114 0.625-0.34 0.867-0.22 0.234-0.536 0.352-0.95 0.352-0.422 0-0.742-0.117-0.96-0.352-0.212-0.242-0.318-0.531-0.318-0.867zM659.412 22.453c0.514 0 0.992-0.106 1.428-0.316 0.438-0.211 0.798-0.5 1.080-0.867 0.28-0.375 0.44-0.801 0.48-1.277h2.062c-0.040 0.75-0.292 1.449-0.762 2.098-0.46 0.641-1.066 1.16-1.816 1.559-0.75 0.391-1.574 0.586-2.472 0.586-0.954 0-1.786-0.168-2.496-0.504-0.704-0.336-1.29-0.797-1.758-1.383-0.462-0.586-0.81-1.258-1.044-2.016-0.226-0.766-0.34-1.574-0.34-2.426v-0.492c0-0.852 0.114-1.656 0.34-2.414 0.234-0.766 0.582-1.441 1.044-2.027 0.468-0.586 1.054-1.047 1.758-1.383 0.71-0.336 1.542-0.504 2.496-0.504 0.992 0 1.858 0.203 2.6 0.609 0.744 0.398 1.326 0.945 1.746 1.641 0.43 0.688 0.664 1.469 0.704 2.344h-2.062c-0.040-0.523-0.188-0.996-0.446-1.418-0.25-0.422-0.594-0.758-1.032-1.008-0.428-0.258-0.932-0.387-1.51-0.387-0.664 0-1.224 0.133-1.676 0.398-0.446 0.258-0.802 0.609-1.066 1.055-0.258 0.438-0.446 0.926-0.564 1.465-0.108 0.531-0.164 1.074-0.164 1.629v0.492c0 0.555 0.056 1.102 0.164 1.641 0.11 0.539 0.294 1.027 0.552 1.465 0.264 0.437 0.62 0.789 1.066 1.055 0.452 0.258 1.016 0.387 1.688 0.387zM671.422 22.688l3.528-11.367h2.32l-5.086 14.637c-0.118 0.313-0.274 0.648-0.468 1.008-0.188 0.367-0.43 0.715-0.728 1.043-0.296 0.328-0.656 0.594-1.078 0.797-0.414 0.211-0.91 0.316-1.488 0.316-0.172 0-0.39-0.023-0.656-0.070s-0.454-0.086-0.562-0.117l-0.012-1.758c0.062 0.008 0.16 0.016 0.292 0.023 0.142 0.016 0.238 0.023 0.294 0.023 0.492 0 0.91-0.066 1.254-0.199 0.344-0.125 0.632-0.34 0.866-0.644 0.242-0.297 0.45-0.707 0.622-1.231l0.902-2.461zM668.832 11.32l3.294 9.844 0.562 2.285-1.558 0.797-4.664-12.926h2.366z"
            ></path>
            <path fill="#4d5ae5" style="fill: var(--color5, #4d5ae5);" d="M517.344 26.344h160.218v1.172h-160.218v-1.172z"></path>
        </symbol>

        <symbol id="icon-person-name" viewBox="0 0 32 32">
            <path
                style="fill: var(--color6, #4d5ae5);"
                d="M16 16c2.947 0 5.333-2.387 5.333-5.333s-2.387-5.333-5.333-5.333c-2.947 0-5.333 2.387-5.333 5.333s2.387 5.333 5.333 5.333zM16 18.667c-3.56 0-10.667 1.787-10.667 5.333v1.333c0 0.733 0.6 1.333 1.333 1.333h18.667c0.733 0 1.333-0.6 1.333-1.333v-1.333c0-3.547-7.107-5.333-10.667-5.333z"
            ></path>
        </symbol>

        <symbol id="icon-phone" viewBox="0 0 24 32">
            <path
                d="M19.635 18.487l-2.451-0.28c-0.589-0.067-1.167 0.135-1.582 0.55l-1.775 1.775c-2.731-1.389-4.969-3.618-6.359-6.359l1.785-1.785c0.415-0.415 0.618-0.994 0.55-1.582l-0.28-2.432c-0.116-0.975-0.936-1.708-1.92-1.708h-1.669c-1.090 0-1.997 0.907-1.93 1.997 0.511 8.24 7.102 14.821 15.332 15.332 1.090 0.068 1.997-0.839 1.997-1.93v-1.669c0.010-0.975-0.724-1.795-1.698-1.911z"
            ></path>
        </symbol>

        <symbol id="icon-email" viewBox="0 0 24 32">
            <path
                d="M20 8h-16c-1.1 0-1.99 0.9-1.99 2l-0.010 12c0 1.1 0.9 2 2 2h16c1.1 0 2-0.9 2-2v-12c0-1.1-0.9-2-2-2zM19.6 12.25l-7.070 4.42c-0.32 0.2-0.74 0.2-1.060 0l-7.070-4.42c-0.25-0.16-0.4-0.43-0.4-0.72 0-0.67 0.73-1.070 1.3-0.72l6.7 4.19 6.7-4.19c0.57-0.35 1.3 0.050 1.3 0.72 0 0.29-0.15 0.56-0.4 0.72z"
            ></path>
        </symbol>
    </defs>
</svg>
